<svg width="450" height="259" viewBox="0 0 450 259" fill="none" xmlns="http://www.w3.org/2000/svg">
<rect width="450" height="259" fill="white"/>
<g filter="url(#filter0_d)">
<path fill-rule="evenodd" clip-rule="evenodd" d="M25.959 44.7307C27.9539 34.547 36.9444 26.8608 47.7381 26.8608C52.3192 26.8608 56.5758 28.2456 60.1112 30.6177C66.6059 18.9216 79.1009 11 93.4549 11C112.546 11 128.356 25.0065 131.122 43.2799C132.712 42.9187 134.364 42.7215 136.065 42.7215C145.053 42.7215 152.787 48.0532 156.278 55.7165C158.457 54.659 160.904 54.0643 163.49 54.0643C172.608 54.0643 180 61.4372 180 70.5318C180 79.6271 172.608 87 163.49 87H136.065H129.621H66.3063H64.2483H35.1958C22.9379 87 13 77.088 13 64.8608C13 55.9228 18.3138 48.2268 25.959 44.7307" fill="#F3F3F3"/>
</g>
<g filter="url(#filter1_d)">
<path fill-rule="evenodd" clip-rule="evenodd" d="M399.775 153.747C398.508 147.182 392.802 142.226 385.951 142.226C383.043 142.226 380.341 143.119 378.097 144.648C373.975 137.107 366.044 132 356.933 132C344.815 132 334.78 141.031 333.024 152.812C332.015 152.579 330.966 152.452 329.887 152.452C324.182 152.452 319.273 155.89 317.057 160.83C315.674 160.149 314.121 159.765 312.48 159.765C306.692 159.765 302 164.519 302 170.382C302 176.246 306.692 181 312.48 181H329.887H333.977H374.165H375.471H393.912C401.692 181 408 174.609 408 166.726C408 160.963 404.627 156.002 399.775 153.747Z" fill="#F3F3F3"/>
</g>
<path d="M200.815 199.092L229.842 180.947" stroke="#242424" stroke-width="2" stroke-linecap="round" stroke-linejoin="bevel"/>
<path d="M225.257 178.404L226.926 179.762C227.254 180.046 227.689 180.333 227.694 180.746C227.699 181.111 227.78 181.472 227.986 181.783C228.46 182.501 229.267 182.88 230.132 182.822C230.657 182.787 231.152 182.586 231.532 182.254C231.913 181.922 232.156 181.479 232.219 181.002C232.282 180.525 232.161 180.042 231.878 179.637C231.595 179.232 231.167 178.929 230.666 178.78C230.041 178.598 229.496 178.24 229.11 177.756C228.723 177.272 228.515 176.689 228.515 176.09V138.914C228.515 138.298 229.014 137.798 229.631 137.798V137.798C230.247 137.798 230.747 138.298 230.747 138.914V174.435V175.593C230.747 175.867 230.959 176.137 231.231 176.179C231.26 176.183 231.297 176.187 231.344 176.189C231.418 176.193 231.487 176.234 231.559 176.253V176.253C232.659 176.578 233.608 177.23 234.255 178.105C234.902 178.98 235.209 180.028 235.128 181.081C234.955 183.419 232.894 185.306 230.335 185.471C230.208 185.479 230.082 185.483 229.957 185.483C228.643 185.483 227.419 185.023 226.434 184.214C224.887 182.943 224.828 180.997 224.938 179.958C224.972 179.642 224.885 179.325 224.693 179.06L224.484 178.772C224.2 178.455 224.675 177.923 225.257 178.404Z" fill="#242424"/>
<path d="M259.776 199.092L229.842 180.947" stroke="#242424" stroke-width="2" stroke-linecap="round" stroke-linejoin="bevel"/>
<path d="M200.237 112.46H254.519L255.916 127.474C256.461 133.337 251.847 138.4 245.958 138.4H227.378H208.798C202.909 138.4 198.295 133.337 198.841 127.474L200.237 112.46Z" fill="white" stroke="#242424" stroke-width="2"/>
<rect x="210.813" y="198.986" width="54.4261" height="32.6618" fill="white"/>
<path d="M202.707 221.098L195.372 232.001V199.092H210.039V232.001L202.707 221.098Z" fill="#FFD249"/>
<path d="M202.707 221.098L210.039 232H195.372L202.707 221.098Z" fill="#FFD249"/>
<path d="M210.039 201.092C210.039 199.987 210.935 199.092 212.039 199.092H212.974H224.709H239.376H251.111H263.778C264.882 199.092 265.778 199.987 265.778 201.092V230C265.778 231.105 264.882 232 263.778 232H212.039C210.935 232 210.039 231.105 210.039 230V201.092Z" stroke="#242424" stroke-width="2" stroke-linecap="round" stroke-linejoin="round"/>
<path d="M210.039 199.092H197.372C196.268 199.092 195.372 199.988 195.372 201.092V230.001C195.372 231.105 196.268 232.001 197.372 232.001H210.039" stroke="#242424" stroke-width="2" stroke-linecap="round" stroke-linejoin="round"/>
<path d="M202.707 205.105V221.097" stroke="#242424" stroke-linecap="round" stroke-linejoin="round"/>
<path d="M196.188 231.242L202.707 221.098L210.039 232" stroke="#242424" stroke-linecap="round" stroke-linejoin="round"/>
<rect width="3.54168" height="0.907231" rx="0.453615" transform="matrix(-0.865984 -0.500071 0.499929 -0.866066 233.691 179.191)" fill="#242424"/>
<ellipse rx="0.453572" ry="0.453615" transform="matrix(-0.865984 -0.500071 0.499929 -0.866066 233.525 178.572)" fill="#FFD249"/>
<rect width="62.9896" height="10.4619" rx="5.23095" transform="matrix(0.916069 -0.401022 0.400894 0.916125 131.577 120.607)" fill="white" stroke="#242424" stroke-width="2"/>
<ellipse rx="7.47163" ry="7.47297" transform="matrix(0.985676 -0.168651 0.168588 0.985687 192.083 98.7836)" fill="white" stroke="#242424" stroke-width="2"/>
<path d="M142.573 97.6123C142.573 94.6109 137.499 92.1777 131.241 92.1777C124.985 92.1777 119.913 94.6091 119.909 97.609C119.909 97.6101 119.909 97.6112 119.909 97.6123V124.465V124.465C119.909 124.673 119.91 124.882 119.909 125.09C119.909 125.095 119.909 125.1 119.909 125.105C119.909 128.106 124.983 130.539 131.241 130.539C137.499 130.539 142.573 128.106 142.573 125.105C142.573 125.1 142.573 125.095 142.573 125.09C142.572 124.882 142.573 124.673 142.573 124.465V124.465V97.6123Z" fill="white"/>
<path d="M142.573 97.6123C142.573 94.6109 137.499 92.1777 131.241 92.1777C124.985 92.1777 119.913 94.6091 119.909 97.609C119.909 97.6101 119.909 97.6112 119.909 97.6123M142.573 97.6123V124.465V124.465C142.573 124.673 142.572 124.882 142.573 125.09C142.573 125.095 142.573 125.1 142.573 125.105C142.573 128.106 137.499 130.539 131.241 130.539C124.983 130.539 119.909 128.106 119.909 125.105C119.909 125.1 119.909 125.095 119.909 125.09C119.91 124.882 119.909 124.673 119.909 124.465V124.465V97.6123M142.573 97.6123V97.6123C135.312 100.593 127.17 100.593 119.909 97.6123V97.6123" stroke="#242424" stroke-width="2"/>
<path d="M135.101 94.4154C135.101 96.8898 133.261 96.6555 130.992 96.6555C128.722 96.6555 126.883 96.8898 126.883 94.4154C126.883 91.9411 128.722 89.1885 130.992 89.1885C133.261 89.1885 135.101 91.9411 135.101 94.4154Z" fill="#242424"/>
<path d="M189.146 45.3094C189.146 43.0486 184.908 41.2158 179.682 41.2158C174.457 41.2158 170.221 43.0473 170.218 45.3069C170.218 45.3077 170.218 45.3085 170.218 45.3094V65.5363V65.5363C170.218 65.6929 170.219 65.8503 170.218 66.0069C170.218 66.0106 170.218 66.0143 170.218 66.0179C170.218 68.2787 174.455 70.1115 179.682 70.1115C184.908 70.1115 189.146 68.2787 189.146 66.0179C189.146 66.0143 189.146 66.0106 189.146 66.0069C189.145 65.8503 189.146 65.6929 189.146 65.5363V65.5363V45.3094Z" fill="white"/>
<path d="M189.146 45.3094C189.146 43.0486 184.908 41.2158 179.682 41.2158C174.457 41.2158 170.221 43.0473 170.218 45.3069C170.218 45.3077 170.218 45.3085 170.218 45.3094M189.146 45.3094V65.5363V65.5363C189.146 65.6929 189.145 65.8503 189.146 66.0069C189.146 66.0106 189.146 66.0143 189.146 66.0179C189.146 68.2787 184.908 70.1115 179.682 70.1115C174.455 70.1115 170.218 68.2787 170.218 66.0179C170.218 66.0143 170.218 66.0106 170.218 66.0069C170.219 65.8503 170.218 65.6929 170.218 65.5363V65.5363V45.3094M189.146 45.3094V45.3094C183.039 47.5704 176.324 47.5704 170.218 45.3094V45.3094" stroke="#242424" stroke-width="2"/>
<rect width="30.5665" height="10.4617" rx="5.23087" transform="matrix(0.87512 0.483905 -0.483764 0.875198 184.743 57.1592)" fill="white" stroke="#242424" stroke-width="2"/>
<ellipse cx="204.836" cy="73.6" rx="7.47159" ry="7.47301" fill="white" stroke="#242424" stroke-width="2"/>
<ellipse cx="179.682" cy="44.5796" rx="28.392" ry="12.5796" stroke="#242424" stroke-width="2"/>
<path d="M182.421 42.4602C182.421 44.1098 181.195 43.9536 179.682 43.9536C178.169 43.9536 176.942 44.1098 176.942 42.4602C176.942 40.8106 178.169 38.9756 179.682 38.9756C181.195 38.9756 182.421 40.8106 182.421 42.4602Z" fill="#242424"/>
<path d="M189.146 45.3094C189.146 43.0486 184.908 41.2158 179.682 41.2158C174.457 41.2158 170.221 43.0473 170.218 45.3069C170.218 45.3077 170.218 45.3085 170.218 45.3094V65.5363V65.5363C170.218 65.6929 170.219 65.8503 170.218 66.0069C170.218 66.0106 170.218 66.0143 170.218 66.0179C170.218 68.2787 174.455 70.1115 179.682 70.1115C184.908 70.1115 189.146 68.2787 189.146 66.0179C189.146 66.0143 189.146 66.0106 189.146 66.0069C189.145 65.8503 189.146 65.6929 189.146 65.5363V65.5363V45.3094Z" fill="#FFD249"/>
<path d="M189.146 45.3094C189.146 43.0486 184.908 41.2158 179.682 41.2158C174.457 41.2158 170.221 43.0473 170.218 45.3069C170.218 45.3077 170.218 45.3085 170.218 45.3094M189.146 45.3094V65.5363V65.5363C189.146 65.6929 189.145 65.8503 189.146 66.0069C189.146 66.0106 189.146 66.0143 189.146 66.0179C189.146 68.2787 184.908 70.1115 179.682 70.1115C174.455 70.1115 170.218 68.2787 170.218 66.0179C170.218 66.0143 170.218 66.0106 170.218 66.0069C170.219 65.8503 170.218 65.6929 170.218 65.5363V65.5363V45.3094M189.146 45.3094V45.3094C183.039 47.5704 176.324 47.5704 170.218 45.3094V45.3094" stroke="#242424" stroke-width="2"/>
<rect width="30.5665" height="10.4617" rx="5.23087" transform="matrix(0.87512 0.483905 -0.483764 0.875198 184.743 57.1592)" fill="white" stroke="#242424" stroke-width="2"/>
<ellipse cx="204.836" cy="73.6" rx="7.47159" ry="7.47301" fill="#666666" stroke="#242424" stroke-width="2"/>
<ellipse cx="179.682" cy="44.5796" rx="28.392" ry="12.5796" stroke="#242424" stroke-width="2"/>
<path d="M182.421 42.4602C182.421 44.1098 181.195 43.9536 179.682 43.9536C178.169 43.9536 176.942 44.1098 176.942 42.4602C176.942 40.8106 178.169 38.9756 179.682 38.9756C181.195 38.9756 182.421 40.8106 182.421 42.4602Z" fill="#242424"/>
<rect width="62.9896" height="10.4619" rx="5.23095" transform="matrix(0.916069 -0.401022 0.400894 0.916125 131.576 120.607)" fill="white" stroke="#242424" stroke-width="2"/>
<ellipse rx="7.47163" ry="7.47297" transform="matrix(0.985676 -0.168651 0.168588 0.985687 192.083 98.7836)" fill="#666666" stroke="#242424" stroke-width="2"/>
<path d="M142.573 97.6123C142.573 94.6109 137.499 92.1777 131.241 92.1777C124.985 92.1777 119.913 94.6091 119.909 97.609C119.909 97.6101 119.909 97.6112 119.909 97.6123V124.465V124.465C119.909 124.673 119.91 124.882 119.909 125.09C119.909 125.095 119.909 125.1 119.909 125.105C119.909 128.106 124.983 130.539 131.241 130.539C137.499 130.539 142.573 128.106 142.573 125.105C142.573 125.1 142.573 125.095 142.573 125.09C142.572 124.882 142.573 124.673 142.573 124.465V124.465V97.6123Z" fill="#FFD249"/>
<path d="M142.573 97.6123C142.573 94.6109 137.499 92.1777 131.241 92.1777C124.985 92.1777 119.913 94.6091 119.909 97.609C119.909 97.6101 119.909 97.6112 119.909 97.6123M142.573 97.6123V124.465V124.465C142.573 124.673 142.572 124.882 142.573 125.09C142.573 125.095 142.573 125.1 142.573 125.105C142.573 128.106 137.499 130.539 131.241 130.539C124.983 130.539 119.909 128.106 119.909 125.105C119.909 125.1 119.909 125.095 119.909 125.09C119.91 124.882 119.909 124.673 119.909 124.465V124.465V97.6123M142.573 97.6123V97.6123C135.312 100.593 127.17 100.593 119.909 97.6123V97.6123" stroke="#242424" stroke-width="2"/>
<path d="M160.899 95.7749C160.899 102.03 147.884 107.101 131.83 107.101M102.76 95.7749C102.76 89.5199 115.775 84.4492 131.83 84.4492" stroke="#242424" stroke-width="2" stroke-linecap="round"/>
<path d="M135.101 94.4154C135.101 96.8898 133.261 96.6555 130.992 96.6555C128.722 96.6555 126.883 96.8898 126.883 94.4154C126.883 91.9411 128.722 89.1885 130.992 89.1885C133.261 89.1885 135.101 91.9411 135.101 94.4154Z" fill="#242424"/>
<path d="M265.854 45.3094C265.854 43.0486 270.092 41.2158 275.318 41.2158C280.543 41.2158 284.779 43.0473 284.782 45.3069C284.782 45.3077 284.782 45.3085 284.782 45.3094V65.5363V65.5363C284.782 65.6929 284.781 65.8503 284.782 66.0069C284.782 66.0106 284.782 66.0143 284.782 66.0179C284.782 68.2787 280.545 70.1115 275.318 70.1115C270.092 70.1115 265.854 68.2787 265.854 66.0179C265.854 66.0143 265.854 66.0106 265.854 66.0069C265.855 65.8503 265.854 65.6929 265.854 65.5363V65.5363V45.3094Z" fill="white"/>
<path d="M265.854 45.3094C265.854 43.0486 270.092 41.2158 275.318 41.2158C280.543 41.2158 284.779 43.0473 284.782 45.3069C284.782 45.3077 284.782 45.3085 284.782 45.3094M265.854 45.3094V65.5363V65.5363C265.854 65.6929 265.855 65.8503 265.854 66.0069C265.854 66.0106 265.854 66.0143 265.854 66.0179C265.854 68.2787 270.092 70.1115 275.318 70.1115C280.545 70.1115 284.782 68.2787 284.782 66.0179C284.782 66.0143 284.782 66.0106 284.782 66.0069C284.781 65.8503 284.782 65.6929 284.782 65.5363V65.5363V45.3094M265.854 45.3094V45.3094C271.961 47.5704 278.676 47.5704 284.782 45.3094V45.3094" stroke="#242424" stroke-width="2"/>
<rect width="30.5665" height="10.4617" rx="5.23087" transform="matrix(-0.87512 0.483905 0.483764 0.875198 270.257 57.1592)" fill="white" stroke="#242424" stroke-width="2"/>
<ellipse rx="7.47159" ry="7.47301" transform="matrix(-1 0 0 1 250.164 73.6)" fill="white" stroke="#242424" stroke-width="2"/>
<ellipse rx="28.392" ry="12.5796" transform="matrix(-1 0 0 1 275.318 44.5796)" stroke="#242424" stroke-width="2"/>
<path d="M272.579 42.4602C272.579 44.1098 273.805 43.9536 275.318 43.9536C276.831 43.9536 278.058 44.1098 278.058 42.4602C278.058 40.8106 276.831 38.9756 275.318 38.9756C273.805 38.9756 272.579 40.8106 272.579 42.4602Z" fill="#242424"/>
<path d="M265.854 45.3094C265.854 43.0486 270.092 41.2158 275.318 41.2158C280.543 41.2158 284.779 43.0473 284.782 45.3069C284.782 45.3077 284.782 45.3085 284.782 45.3094V65.5363V65.5363C284.782 65.6929 284.781 65.8503 284.782 66.0069C284.782 66.0106 284.782 66.0143 284.782 66.0179C284.782 68.2787 280.545 70.1115 275.318 70.1115C270.092 70.1115 265.854 68.2787 265.854 66.0179C265.854 66.0143 265.854 66.0106 265.854 66.0069C265.855 65.8503 265.854 65.6929 265.854 65.5363V65.5363V45.3094Z" fill="#FFD249"/>
<path d="M265.854 45.3094C265.854 43.0486 270.092 41.2158 275.318 41.2158C280.543 41.2158 284.779 43.0473 284.782 45.3069C284.782 45.3077 284.782 45.3085 284.782 45.3094M265.854 45.3094V65.5363V65.5363C265.854 65.6929 265.855 65.8503 265.854 66.0069C265.854 66.0106 265.854 66.0143 265.854 66.0179C265.854 68.2787 270.092 70.1115 275.318 70.1115C280.545 70.1115 284.782 68.2787 284.782 66.0179C284.782 66.0143 284.782 66.0106 284.782 66.0069C284.781 65.8503 284.782 65.6929 284.782 65.5363V65.5363V45.3094M265.854 45.3094V45.3094C271.961 47.5704 278.676 47.5704 284.782 45.3094V45.3094" stroke="#242424" stroke-width="2"/>
<rect width="30.5665" height="10.4617" rx="5.23087" transform="matrix(-0.87512 0.483905 0.483764 0.875198 270.257 57.1592)" fill="white" stroke="#242424" stroke-width="2"/>
<ellipse rx="7.47159" ry="7.47301" transform="matrix(-1 0 0 1 250.164 73.6)" fill="#666666" stroke="#242424" stroke-width="2"/>
<ellipse rx="28.392" ry="12.5796" transform="matrix(-1 0 0 1 275.318 44.5796)" stroke="#242424" stroke-width="2"/>
<path d="M272.579 42.4602C272.579 44.1098 273.805 43.9536 275.318 43.9536C276.831 43.9536 278.058 44.1098 278.058 42.4602C278.058 40.8106 276.831 38.9756 275.318 38.9756C273.805 38.9756 272.579 40.8106 272.579 42.4602Z" fill="#242424"/>
<rect width="62.9896" height="10.4619" rx="5.23095" transform="matrix(-0.916069 -0.401022 -0.400894 0.916125 323.424 120.608)" fill="white" stroke="#242424" stroke-width="2"/>
<ellipse rx="7.47163" ry="7.47297" transform="matrix(-0.985676 -0.168651 -0.168588 0.985687 262.917 98.7846)" fill="#666666" stroke="#242424" stroke-width="2"/>
<path d="M312.427 97.6132C312.427 94.6119 317.501 92.1787 323.759 92.1787C330.015 92.1787 335.087 94.6101 335.091 97.61C335.091 97.6111 335.091 97.6122 335.091 97.6132V124.466V124.466C335.091 124.674 335.09 124.883 335.091 125.091C335.091 125.096 335.091 125.101 335.091 125.106C335.091 128.107 330.017 130.54 323.759 130.54C317.501 130.54 312.427 128.107 312.427 125.106C312.427 125.101 312.427 125.096 312.427 125.091C312.428 124.883 312.427 124.674 312.427 124.466V124.466V97.6132Z" fill="#FFD249"/>
<path d="M312.427 97.6132C312.427 94.6119 317.501 92.1787 323.759 92.1787C330.015 92.1787 335.087 94.6101 335.091 97.61C335.091 97.6111 335.091 97.6122 335.091 97.6132M312.427 97.6132V124.466V124.466C312.427 124.674 312.428 124.883 312.427 125.091C312.427 125.096 312.427 125.101 312.427 125.106C312.427 128.107 317.501 130.54 323.759 130.54C330.017 130.54 335.091 128.107 335.091 125.106C335.091 125.101 335.091 125.096 335.091 125.091C335.09 124.883 335.091 124.674 335.091 124.466V124.466V97.6132M312.427 97.6132V97.6132C319.688 100.594 327.83 100.594 335.091 97.6132V97.6132" stroke="#242424" stroke-width="2"/>
<ellipse rx="35.4901" ry="14.8215" transform="matrix(-1 0 0 1 323.51 95.7902)" stroke="#242424" stroke-width="2"/>
<path d="M319.899 94.4154C319.899 96.8898 321.739 96.6555 324.008 96.6555C326.278 96.6555 328.118 96.8898 328.118 94.4154C328.118 91.9411 326.278 89.1885 324.008 89.1885C321.739 89.1885 319.899 91.9411 319.899 94.4154Z" fill="#242424"/>
<path d="M211.708 61.1455C211.174 61.1455 210.699 61.487 210.528 61.994L209.054 66.3766H206.376C205.892 66.3766 205.453 66.6566 205.248 67.0947L190.508 98.6335C190.431 98.7986 190.391 98.9787 190.391 99.1609V111.054C190.391 111.466 190.595 111.852 190.936 112.084L196.666 115.981C196.729 116.024 196.797 116.061 196.866 116.092V119.716C196.866 120.284 197.251 120.78 197.8 120.922L204.65 122.69C219.474 126.519 235.028 126.519 249.852 122.69L256.701 120.922C257.251 120.78 257.635 120.284 257.635 119.716V116.096C257.7 116.07 257.763 116.037 257.822 116L264.029 112.079C264.39 111.851 264.609 111.454 264.609 111.026V99.1671C264.609 98.9809 264.567 98.797 264.487 98.6291L249.382 67.0841C249.175 66.6518 248.738 66.3766 248.259 66.3766H245.339L243.851 61.9908C243.679 61.4855 243.205 61.1455 242.671 61.1455H211.708Z" fill="white"/>
<path d="M209.054 66.3766L210.528 61.994C210.699 61.487 211.174 61.1455 211.708 61.1455H242.671C243.205 61.1455 243.679 61.4855 243.851 61.9908L245.339 66.3766M209.054 66.3766H206.376C205.892 66.3766 205.453 66.6566 205.248 67.0947L190.508 98.6335C190.431 98.7986 190.391 98.9787 190.391 99.1609V111.054C190.391 111.466 190.595 111.852 190.936 112.084L196.666 115.981C196.729 116.024 196.797 116.061 196.866 116.092M209.054 66.3766L203.427 84.3118L197.8 102.247M196.866 116.092V119.716C196.866 120.284 197.251 120.78 197.8 120.922L204.65 122.69C219.474 126.519 235.028 126.519 249.852 122.69L256.701 120.922C257.251 120.78 257.635 120.284 257.635 119.716V116.096M196.866 116.092L197.8 102.247M257.635 116.096C257.7 116.07 257.763 116.037 257.822 116L264.029 112.079C264.39 111.851 264.609 111.454 264.609 111.026V99.1671C264.609 98.9809 264.567 98.797 264.487 98.6291L249.382 67.0841C249.175 66.6518 248.738 66.3766 248.259 66.3766H245.339M257.635 116.096L256.701 102.496M245.339 66.3766L256.701 102.496M197.8 102.247V102.247C216.636 105.627 235.905 105.814 254.803 102.799L256.701 102.496" stroke="#242424" stroke-width="2"/>
<path d="M242.135 84.5614C241.872 84.5638 241.615 84.4805 241.407 84.3249C241.198 84.1694 241.05 83.9505 240.985 83.7033C240.92 83.4562 240.943 83.1952 241.049 82.962C241.156 82.7288 241.34 82.537 241.572 82.4174L248.741 78.6866C249.013 78.5658 249.323 78.5501 249.608 78.6425C249.892 78.735 250.129 78.9287 250.271 79.1845C250.414 79.4402 250.45 79.7388 250.374 80.0197C250.297 80.3007 250.113 80.5429 249.859 80.6973L242.685 84.4281C242.516 84.5161 242.327 84.5619 242.135 84.5614Z" fill="#242424"/>
<path d="M243.163 91.2857C242.944 91.2847 242.729 91.2273 242.543 91.1197C242.356 91.0121 242.203 90.8584 242.102 90.6751C241.944 90.4103 241.903 90.097 241.989 89.8039C242.075 89.5109 242.281 89.262 242.561 89.1121L250.839 84.7098C251.12 84.56 251.453 84.5219 251.764 84.6037C252.075 84.6856 252.339 84.8808 252.497 85.1464C252.656 85.412 252.696 85.7262 252.61 86.0199C252.523 86.3136 252.316 86.5627 252.035 86.7125L243.809 91.1392C243.613 91.246 243.389 91.2969 243.163 91.2857V91.2857Z" fill="#242424"/>
<path d="M244.14 97.515C243.932 97.514 243.727 97.461 243.545 97.3611C243.364 97.2612 243.212 97.1179 243.105 96.9449C242.945 96.6805 242.9 96.3657 242.98 96.0693C243.06 95.7729 243.258 95.5191 243.531 95.3632L252.594 90.2013C252.868 90.046 253.194 90.0021 253.501 90.0791C253.809 90.1561 254.072 90.3478 254.233 90.612C254.394 90.8763 254.439 91.1913 254.359 91.4879C254.279 91.7846 254.081 92.0384 253.807 92.1937L244.744 97.3495C244.562 97.4564 244.353 97.5136 244.14 97.515V97.515Z" fill="#242424"/>
<path d="M213.114 84.5614C212.92 84.5611 212.73 84.5154 212.558 84.4281L205.39 80.6973C205.136 80.5429 204.952 80.3007 204.875 80.0197C204.799 79.7388 204.835 79.4402 204.978 79.1845C205.12 78.9287 205.357 78.735 205.642 78.6425C205.926 78.5501 206.236 78.5658 206.508 78.6866L213.677 82.4174C213.909 82.537 214.093 82.7288 214.2 82.962C214.306 83.1952 214.329 83.4562 214.264 83.7033C214.199 83.9505 214.051 84.1694 213.842 84.3249C213.634 84.4805 213.377 84.5638 213.114 84.5614V84.5614Z" fill="#242424"/>
<path d="M211.865 91.2871C211.661 91.2891 211.461 91.2402 211.284 91.1454L203.2 86.8899C202.925 86.7451 202.723 86.5042 202.638 86.2203C202.554 85.9364 202.593 85.6326 202.748 85.3759C202.903 85.1192 203.161 84.9305 203.464 84.8514C203.768 84.7722 204.093 84.8091 204.368 84.9539L212.453 89.2095C212.727 89.3556 212.928 89.5972 213.012 89.8814C213.096 90.1657 213.056 90.4695 212.901 90.7264C212.797 90.8976 212.647 91.0399 212.465 91.1385C212.283 91.237 212.076 91.2884 211.865 91.2871V91.2871Z" fill="#242424"/>
<path d="M211.109 97.515C210.896 97.5136 210.687 97.4564 210.505 97.3495L201.442 92.1937C201.306 92.1168 201.188 92.0149 201.093 91.8938C200.998 91.7727 200.929 91.6348 200.89 91.4879C200.85 91.3411 200.841 91.1881 200.863 91.0378C200.885 90.8875 200.937 90.7429 201.016 90.612C201.096 90.4812 201.202 90.3668 201.327 90.2754C201.452 90.1839 201.595 90.1172 201.748 90.0791C201.9 90.0409 202.058 90.0321 202.214 90.0531C202.37 90.074 202.519 90.1244 202.655 90.2013L211.718 95.3755C211.991 95.5313 212.189 95.7852 212.269 96.0815C212.349 96.3779 212.304 96.6927 212.144 96.9571C212.035 97.1278 211.883 97.2688 211.702 97.3665C211.52 97.4641 211.316 97.5153 211.109 97.515V97.515Z" fill="#242424"/>
<mask id="path-65-outside-1" maskUnits="userSpaceOnUse" x="211.304" y="34.6973" width="33" height="48" fill="black">
<rect fill="white" x="211.304" y="34.6973" width="33" height="48"/>
<path fill-rule="evenodd" clip-rule="evenodd" d="M227.375 36.6973C235.147 36.6973 241.447 39.1884 241.447 42.2615C241.447 42.367 241.44 42.4718 241.425 42.5759C241.424 42.5826 241.429 42.5886 241.436 42.5886V42.5886C241.442 42.5886 241.447 42.5936 241.447 42.5997L241.447 43.2434V43.5707L241.447 49.1347V49.462L241.447 73.3481C241.447 73.3522 241.444 73.3556 241.439 73.3556V73.3556C241.435 73.3556 241.432 73.3594 241.432 73.3637C241.442 73.4695 241.447 73.5759 241.447 73.6829C241.447 77.479 235.147 80.5563 227.375 80.5563C219.604 80.5563 213.304 77.479 213.304 73.6829C213.304 73.5759 213.309 73.4695 213.319 73.3637C213.319 73.3594 213.316 73.3556 213.311 73.3556V73.3556C213.307 73.3556 213.304 73.3522 213.304 73.3481V49.462V49.1347V43.5707V43.2434V42.5997C213.304 42.5936 213.309 42.5886 213.315 42.5886V42.5886C213.322 42.5886 213.327 42.5826 213.326 42.5759C213.311 42.4718 213.304 42.367 213.304 42.2615C213.304 39.1884 219.604 36.6973 227.375 36.6973Z"/>
</mask>
<path fill-rule="evenodd" clip-rule="evenodd" d="M227.375 36.6973C235.147 36.6973 241.447 39.1884 241.447 42.2615C241.447 42.367 241.44 42.4718 241.425 42.5759C241.424 42.5826 241.429 42.5886 241.436 42.5886V42.5886C241.442 42.5886 241.447 42.5936 241.447 42.5997L241.447 43.2434V43.5707L241.447 49.1347V49.462L241.447 73.3481C241.447 73.3522 241.444 73.3556 241.439 73.3556V73.3556C241.435 73.3556 241.432 73.3594 241.432 73.3637C241.442 73.4695 241.447 73.5759 241.447 73.6829C241.447 77.479 235.147 80.5563 227.375 80.5563C219.604 80.5563 213.304 77.479 213.304 73.6829C213.304 73.5759 213.309 73.4695 213.319 73.3637C213.319 73.3594 213.316 73.3556 213.311 73.3556V73.3556C213.307 73.3556 213.304 73.3522 213.304 73.3481V49.462V49.1347V43.5707V43.2434V42.5997C213.304 42.5936 213.309 42.5886 213.315 42.5886V42.5886C213.322 42.5886 213.327 42.5826 213.326 42.5759C213.311 42.4718 213.304 42.367 213.304 42.2615C213.304 39.1884 219.604 36.6973 227.375 36.6973Z" fill="white"/>
<path d="M241.447 43.2434L243.447 43.2434L243.447 43.2434L241.447 43.2434ZM241.447 43.5707L243.447 43.5707V43.5707H241.447ZM241.447 49.1347L239.447 49.1347V49.1347H241.447ZM241.447 49.462L239.447 49.462V49.462L241.447 49.462ZM241.432 73.3637L239.441 73.5501L241.432 73.3637ZM241.425 42.5759L243.405 42.8549L241.425 42.5759ZM213.319 73.3637L215.31 73.55L213.319 73.3637ZM241.447 73.3481L239.447 73.3481L241.447 73.3481ZM241.447 42.5997L243.447 42.5997L241.447 42.5997ZM243.447 42.2615C243.447 40.7573 242.668 39.533 241.707 38.6347C240.749 37.7393 239.472 37.0251 238.061 36.4671C235.227 35.3464 231.448 34.6973 227.375 34.6973V38.6973C231.074 38.6973 234.331 39.2937 236.59 40.1869C237.725 40.6358 238.509 41.1205 238.975 41.5566C239.438 41.9896 239.447 42.2291 239.447 42.2615H243.447ZM243.405 42.8549C243.433 42.6592 243.447 42.4612 243.447 42.2615H239.447C239.447 42.2728 239.446 42.2844 239.444 42.2969L243.405 42.8549ZM239.447 42.5997L239.447 43.2434L243.447 43.2434L243.447 42.5997L239.447 42.5997ZM239.447 43.2434V43.5707H243.447V43.2434H239.447ZM243.447 49.1347L243.447 43.5707L239.447 43.5707L239.447 49.1347L243.447 49.1347ZM243.447 49.462V49.1347H239.447V49.462H243.447ZM243.447 73.3481L243.447 49.462L239.447 49.462L239.447 73.3481L243.447 73.3481ZM243.447 73.6829C243.447 73.5135 243.439 73.3449 243.423 73.1774L239.441 73.5501C239.445 73.5941 239.447 73.6383 239.447 73.6829H243.447ZM227.375 82.5563C231.498 82.5563 235.329 81.7443 238.203 80.3402C240.945 79.0012 243.447 76.7712 243.447 73.6829H239.447C239.447 74.3906 238.799 75.5973 236.448 76.746C234.229 77.8296 231.024 78.5563 227.375 78.5563V82.5563ZM211.304 73.6829C211.304 76.7712 213.806 79.0012 216.548 80.3402C219.422 81.7443 223.253 82.5563 227.375 82.5563V78.5563C223.727 78.5563 220.522 77.8296 218.303 76.746C215.952 75.5973 215.304 74.3906 215.304 73.6829H211.304ZM211.328 73.1774C211.312 73.3449 211.304 73.5135 211.304 73.6829H215.304C215.304 73.6383 215.306 73.5941 215.31 73.55L211.328 73.1774ZM211.304 49.462V73.3481H215.304V49.462H211.304ZM211.304 49.1347V49.462H215.304V49.1347H211.304ZM215.304 49.1347V43.5707H211.304V49.1347H215.304ZM215.304 43.5707V43.2434H211.304V43.5707H215.304ZM215.304 43.2434V42.5997H211.304V43.2434H215.304ZM211.304 42.2615C211.304 42.4612 211.318 42.6592 211.346 42.8549L215.306 42.2969C215.305 42.2844 215.304 42.2728 215.304 42.2615H211.304ZM227.375 34.6973C223.303 34.6973 219.524 35.3464 216.69 36.4671C215.279 37.0251 214.002 37.7393 213.044 38.6347C212.083 39.533 211.304 40.7573 211.304 42.2615H215.304C215.304 42.2291 215.312 41.9896 215.776 41.5566C216.242 41.1205 217.026 40.6358 218.161 40.1869C220.42 39.2937 223.677 38.6973 227.375 38.6973V34.6973ZM213.315 44.5886C214.545 44.5886 215.476 43.4995 215.306 42.2969L211.346 42.8549C211.178 41.6657 212.098 40.5886 213.315 40.5886V44.5886ZM241.439 71.3556C240.254 71.3556 239.331 72.3758 239.441 73.5501L243.423 73.1774C243.532 74.3429 242.616 75.3556 241.439 75.3556V71.3556ZM239.444 42.2969C239.275 43.4995 240.206 44.5886 241.436 44.5886V40.5886C242.652 40.5886 243.573 41.6657 243.405 42.8549L239.444 42.2969ZM215.31 73.55C215.42 72.3758 214.497 71.3556 213.311 71.3556V75.3556C212.134 75.3556 211.219 74.3429 211.328 73.1774L215.31 73.55ZM215.304 42.5997C215.304 43.6981 214.413 44.5886 213.315 44.5886V40.5886C212.204 40.5886 211.304 41.489 211.304 42.5997H215.304ZM239.447 73.3481C239.447 72.2477 240.339 71.3556 241.439 71.3556V75.3556C242.548 75.3556 243.447 74.4568 243.447 73.3481L239.447 73.3481ZM213.311 71.3556C214.412 71.3556 215.304 72.2476 215.304 73.3481H211.304C211.304 74.4569 212.203 75.3556 213.311 75.3556V71.3556ZM241.436 44.5886C240.337 44.5886 239.447 43.6982 239.447 42.5997L243.447 42.5997C243.447 41.489 242.547 40.5886 241.436 40.5886V44.5886Z" fill="#242424" mask="url(#path-65-outside-1)"/>
<path d="M241.447 73.6829C241.447 77.479 235.147 80.5563 227.375 80.5563C219.604 80.5563 213.304 77.479 213.304 73.6829C213.304 69.8868 219.604 66.8094 227.375 66.8094C235.147 66.8094 241.447 69.8868 241.447 73.6829Z" fill="#FFD249"/>
<path d="M241.447 43.5707C241.447 47.3668 235.147 50.4441 227.375 50.4441C219.604 50.4441 213.304 47.3668 213.304 43.5707C213.304 39.7746 219.604 36.6973 227.375 36.6973C235.147 36.6973 241.447 39.7746 241.447 43.5707Z" fill="#FFD249"/>
<path d="M213.304 43.2434H241.447V73.3556H213.304V43.2434Z" fill="#FFD249"/>
<ellipse cx="227.375" cy="42.2615" rx="14.0715" ry="5.56421" fill="#242424"/>
<ellipse cx="227.375" cy="49.4617" rx="14.0715" ry="5.56421" fill="#242424"/>
<rect x="213.304" y="42.5889" width="28.143" height="6.54612" fill="#242424"/>
<mask id="mask0" mask-type="alpha" maskUnits="userSpaceOnUse" x="213" y="36" width="29" height="45">
<path d="M241.447 73.6829C241.447 77.479 235.147 80.5563 227.375 80.5563C219.604 80.5563 213.304 77.479 213.304 73.6829C213.304 69.8868 219.604 66.8094 227.375 66.8094C235.147 66.8094 241.447 69.8868 241.447 73.6829Z" fill="#242424"/>
<path d="M241.447 43.5707C241.447 47.3668 235.147 50.4441 227.375 50.4441C219.604 50.4441 213.304 47.3668 213.304 43.5707C213.304 39.7746 219.604 36.6973 227.375 36.6973C235.147 36.6973 241.447 39.7746 241.447 43.5707Z" fill="#242424"/>
<path d="M213.304 43.2434H241.447V73.3556H213.304V43.2434Z" fill="#242424"/>
<ellipse cx="227.375" cy="42.2615" rx="14.0715" ry="5.56421" fill="#FFD249"/>
<ellipse cx="227.375" cy="49.4617" rx="14.0715" ry="5.56421" fill="#FFD249"/>
<rect x="213.304" y="42.5889" width="28.143" height="6.54612" fill="#FFD249"/>
</mask>
<g mask="url(#mask0)">
<rect opacity="0.4" x="211.34" y="34.0791" width="15.7077" height="51.7144" fill="white"/>
</g>



<ellipse cx="131.49" cy="95.7902" rx="35.4901" ry="14.8215" stroke="#242424" stroke-width="2"/>
<path d="M353.23 95.7749C353.23 102.03 340.215 107.101 324.16 107.101M295.091 95.7749C295.091 89.5199 308.106 84.4492 324.16 84.4492" stroke="#242424" stroke-width="2" stroke-linecap="round"/>
<path d="M299.485 44.5559C299.485 49.5972 288.967 53.684 275.993 53.684M252.501 44.5559C252.501 39.5145 263.019 35.4277 275.993 35.4277" stroke="#242424" stroke-width="2" stroke-linecap="round"/>
<path d="M203.489 44.5559C203.489 49.5972 192.971 53.684 179.997 53.684M156.505 44.5559C156.505 39.5145 167.023 35.4277 179.997 35.4277" stroke="#242424" stroke-width="2" stroke-linecap="round"/>
<defs>
<filter id="filter0_d" x="5" y="7" width="183" height="92" filterUnits="userSpaceOnUse" color-interpolation-filters="sRGB">
<feFlood flood-opacity="0" result="BackgroundImageFix"/>
<feColorMatrix in="SourceAlpha" type="matrix" values="0 0 0 0 0 0 0 0 0 0 0 0 0 0 0 0 0 0 127 0" result="hardAlpha"/>
<feOffset dy="4"/>
<feGaussianBlur stdDeviation="4"/>
<feColorMatrix type="matrix" values="0 0 0 0 0 0 0 0 0 0 0 0 0 0 0 0 0 0 0.08 0"/>
<feBlend mode="normal" in2="BackgroundImageFix" result="effect1_dropShadow"/>
<feBlend mode="normal" in="SourceGraphic" in2="effect1_dropShadow" result="shape"/>
</filter>
<filter id="filter1_d" x="294" y="128" width="122" height="65" filterUnits="userSpaceOnUse" color-interpolation-filters="sRGB">
<feFlood flood-opacity="0" result="BackgroundImageFix"/>
<feColorMatrix in="SourceAlpha" type="matrix" values="0 0 0 0 0 0 0 0 0 0 0 0 0 0 0 0 0 0 127 0" result="hardAlpha"/>
<feOffset dy="4"/>
<feGaussianBlur stdDeviation="4"/>
<feColorMatrix type="matrix" values="0 0 0 0 0 0 0 0 0 0 0 0 0 0 0 0 0 0 0.08 0"/>
<feBlend mode="normal" in2="BackgroundImageFix" result="effect1_dropShadow"/>
<feBlend mode="normal" in="SourceGraphic" in2="effect1_dropShadow" result="shape"/>
</filter>
</defs>
</svg>
