<svg viewBox="0 0 640 400" data-background-color="#ffffff" preserveAspectRatio="xMidYMid meet" height="400" width="640" xmlns="http://www.w3.org/2000/svg" xmlns:xlink="http://www.w3.org/1999/xlink"><rect width="640" height="400" x="0" y="0" opacity="1" fill="#121225" data-fill-palette-color="background" id="background"></rect><g id="tight-bounds" transform="matrix(1,0,0,1,160,20)"><svg viewBox="0 0 320 360" height="360" width="320"><g><svg></svg></g><g><svg viewBox="0 0 320 360" height="360" width="320"><g><path xmlns="http://www.w3.org/2000/svg" d="M20.961 227.22l3.726 4.658-1.863-6.056c-0.466-2.795-3.726 0.466-1.863 1.398M25.153 224.425c1.397 2.329 2.795 4.658 2.795 6.987 0 3.261 2.795 4.658 5.123 5.589-3.261-3.726-5.124-13.974-7.918-12.576M204.017 26.929c7.918 0 15.371-0.932 23.756 0.931 20.495 5.124 37.729 15.371 49.374 29.811l32.606 52.169c1.397 13.042 4.192 27.482 3.726 43.319 3.261 0 2.795-4.658 6.521-5.59-3.726 9.316-5.59 20.961-6.521 34.469-2.329-7.453 0-18.632 0.466-24.687-3.261 5.124-5.124 1.397-5.124-0.932 0.466-3.726-1.397-3.261-2.795-4.658-5.124-4.658-8.384-9.782-12.11-17.7 2.329-6.055 2.795-14.905-4.658-19.563-2.329-1.397-5.124-3.726-6.521-7.453-1.863-5.124-5.124-11.179-4.193-19.097 0.466-2.329-6.987 5.124-11.179 1.863-18.166-12.576-36.332-27.016-58.224-39.127-11.645 0-20.029-4.192-24.221-9.316-3.726-4.658-0.932-10.713 4.658-11.179 3.261 0 6.987-0.932 9.782 0.932 0.466-1.863 2.329-4.192 4.657-4.192M157.904 16.215l0.932 0.466c4.658 0.932 6.987 7.453 12.11 5.124 0 3.261 0.466 6.521-0.466 8.85-1.397 3.726-5.59 3.726-8.85 3.726-31.208-1.863-49.374 11.179-68.471 22.358-5.124 3.261-10.713 5.59-14.906 9.782-20.029 18.632-41.921 35.866-47.045 70.335l-4.192 38.195c-0.466 4.192-5.124 8.384-4.192 13.508l3.26 22.824c-3.261-3.261-5.124 0.932-4.192 2.795 0.466 1.397 2.329 6.055 5.124 1.863 3.726 6.987 7.453 20.495 12.576 26.55 15.837 18.632 36.332 35.4 53.101 52.169 4.192-0.932 7.453-0.932 8.384-3.727 1.397 2.795-1.397 5.59-3.726 6.056 7.453 4.658 15.837 8.85 27.016 9.781 14.44 0.932 27.948 3.261 40.524 6.522 6.521-1.863 13.042-2.795 20.029-3.261 2.329 0 3.726-3.726 6.521-4.658l0.466-4.658c2.795 4.192 2.329-1.397 0.466-4.192 3.261 2.795 4.192 5.124 5.589 6.987 0-1.397 3.726-6.521 3.727-0.466l0.931-6.055c1.397-0.932 1.863 5.124 3.261 0.931 1.397-4.192 4.192-0.932 6.987-2.329-0.932 1.863-0.466 5.59 2.794 3.261l3.727-3.261c2.329 5.59 6.055 3.261 7.918 2.329 20.495-13.042 40.99-28.413 60.553-43.784l-0.466 6.055 2.329-7.453c2.329 2.329 4.192 0.466 5.124-0.931 2.795-4.658 6.521-9.316 12.577-13.508-7.453 20.029-16.303 35.866-27.482 48.908l-4.658 5.59c0 3.261-0.932 7.453-4.658 7.918-1.863 0.466-5.59-0.932-8.384 1.863-1.397 1.863 3.261 5.59-0.466 2.795-3.261-2.329-6.521 0-10.248 0.932-2.795 0.932 1.863 3.726 2.795 5.589 0.932 1.863 1.863 3.726 1.398 6.056l-5.124-5.59c-6.055 3.261-9.782 9.316-14.906 13.974-2.329 1.863-1.397 5.124-1.397 7.918-3.261 0-6.987-0.932-8.85 0.932-1.397 1.863-0.932 4.658-0.932 7.453-4.658-0.466-5.124-7.453-9.315-6.056-4.192 0.932-8.85 1.397-12.577 3.727 2.795 5.59-4.658 2.329-3.726 3.26-6.987-4.192-13.042-7.453-20.495-4.658-15.837-5.124-35.4-2.795-49.84-0.931 0-2.329 0.466-4.658-0.466-5.124-0.932 2.329-3.726 1.397-3.26 1.397-8.85-6.055-17.7-9.782-27.016-14.905-8.384 0.932-16.303-3.261-18.632-5.59-6.521-6.055-13.974-2.795-20.029-4.192-13.042-3.261-17.7-16.769-19.098-26.084-0.932-4.658-4.658-6.521-6.055-6.056-6.055-19.563-15.371-37.263-22.824-55.429-1.863-4.658-1.397-9.316-1.397-14.44 2.329 0.932 4.658 0.466 4.192-2.794-2.329-15.371-7.918-27.016-13.974-38.195 3.261-15.837 3.726-34.469 11.179-48.443 6.521-12.576 18.632-19.098 27.016-29.811 2.795-3.726 2.795-8.85 5.59-12.11 9.316-9.316 18.632-19.098 28.879-27.482 4.658-3.726 10.247 0 17.234-1.397 2.329-8.384 11.645-15.837 20.495-13.508 3.726 0.932 11.179-8.85 13.508-9.782 3.726-1.397 1.863 3.726 1.863 6.987 8.85-6.987 20.961-10.713 32.14-14.906" fill="#2020ff" fill-rule="nonzero" stroke="none" stroke-width="1" stroke-linecap="butt" stroke-linejoin="miter" stroke-miterlimit="10" stroke-dasharray="" stroke-dashoffset="0" font-family="none" font-weight="none" font-size="none" text-anchor="none" style="mix-blend-mode: normal" data-fill-palette-color="tertiary"></path></g><g transform="matrix(1,0,0,1,64,155.29967389312978)"><svg viewBox="0 0 192 49.40065221374045" height="49.40065221374045" width="192"><g><svg viewBox="0 0 192 49.40065221374045" height="49.40065221374045" width="192"><g><svg viewBox="0 0 192 49.40065221374045" height="49.40065221374045" width="192"><g transform="matrix(1,0,0,1,0,29.858667480916026)"><svg viewBox="0 0 192 19.541984732824424" height="19.541984732824424" width="192"><g id="textblocktransform"><svg viewBox="0 0 192 19.541984732824424" height="19.541984732824424" width="192" id="textblock"><g><svg viewBox="0 0 192 19.541984732824424" height="19.541984732824424" width="192"><g transform="matrix(1,0,0,1,0,0)"><svg width="192" viewBox="2.200000047683716 -35.5 353.6499938964844 36" height="19.541984732824424" data-palette-color="#202046"><path d="M8.45 0L2.2 0 2.2-34.05Q2.2-34.5 2.48-34.75 2.75-35 3.55-35L3.55-35 8.4-35Q10.85-35 12.7-34.25 14.55-33.5 15.75-31.73 16.95-29.95 17.57-26.9 18.2-23.85 18.2-19.3L18.2-19.3Q18.2-13.8 17.55-10.08 16.9-6.35 15.63-4.15 14.35-1.95 12.55-0.98 10.75 0 8.45 0L8.45 0ZM6.25-31.25L6.25-3.85 8.5-3.85Q9.5-3.85 10.4-4.4 11.3-4.95 12.03-6.58 12.75-8.2 13.18-11.35 13.6-14.5 13.6-19.7L13.6-19.7Q13.6-23.15 13.28-25.4 12.95-27.65 12.33-28.95 11.7-30.25 10.75-30.75 9.8-31.25 8.55-31.25L8.55-31.25 6.25-31.25ZM27.35-14.2L22.9-14.2Q22.15-14.2 22.1-14.45 22.05-14.7 22.05-15.3L22.05-15.3 22.05-34.05Q22.05-34.2 22.07-34.6 22.1-35 22.65-35L22.65-35 27.3-35Q30.45-35 32.5-33.98 34.55-32.95 35.52-30.78 36.5-28.6 36.5-25.1L36.5-25.1Q36.5-22 35.77-19.93 35.05-17.85 33.77-16.6 32.5-15.35 30.85-14.78 29.2-14.2 27.35-14.2L27.35-14.2ZM21.5 0L21.5 0 21.5-34.2Q21.5-34.2 21.62-34.6 21.75-35 22.35-35L22.35-35 24.75-35Q25.35-35 25.45-34.6 25.55-34.2 25.55-34.2L25.55-34.2 25.55-0.8Q25.55-0.4 25.37-0.25 25.2-0.1 24.35-0.05 23.5 0 21.5 0ZM34.8 0.1L34.8 0.1Q34.35 0.1 33.72 0.08 33.1 0.05 32.4 0L32.4 0Q32.15-4.3 31.37-7.23 30.6-10.15 29.72-11.88 28.85-13.6 28.2-14.35 27.55-15.1 27.55-15.1L27.55-15.1Q27.55-15.1 27.45-15.4 27.35-15.7 27.85-16L27.85-16 30.05-17.2Q30.65-17.2 30.9-16.75L30.9-16.75Q30.9-16.75 31.7-15.85 32.5-14.95 33.6-13.03 34.7-11.1 35.65-8.1 36.6-5.1 36.85-0.9L36.85-0.9Q36.85-0.35 36.55-0.13 36.25 0.1 34.8 0.1ZM25.45-31.45L25.45-17.95 27.75-17.95Q29.15-17.95 30.07-18.68 31-19.4 31.5-21.03 32-22.65 32-25.3L32-25.3Q32-27.2 31.65-28.6 31.3-30 30.42-30.73 29.55-31.45 28.05-31.45L28.05-31.45 25.45-31.45ZM48.5 0.5L48.5 0.5Q46.05 0.5 44.32-0.33 42.6-1.15 41.52-3.2 40.45-5.25 39.95-8.78 39.45-12.3 39.45-17.7L39.45-17.7Q39.45-24.35 40.5-28.25 41.55-32.15 43.67-33.83 45.8-35.5 49.05-35.5L49.05-35.5Q51.45-35.5 53.15-34.63 54.85-33.75 55.9-31.73 56.95-29.7 57.42-26.33 57.9-22.95 57.9-17.85L57.9-17.85Q57.9-10.95 56.92-6.95 55.95-2.95 53.87-1.23 51.8 0.5 48.5 0.5ZM48.65-3.7L48.65-3.7Q50.5-3.7 51.52-5.08 52.55-6.45 53.02-9.58 53.5-12.7 53.5-17.75L53.5-17.75Q53.5-22.75 53.1-25.73 52.7-28.7 51.72-30 50.75-31.3 48.95-31.3L48.95-31.3Q47.2-31.3 46.1-29.9 45-28.5 44.5-25.3 44-22.1 44-16.7L44-16.7Q44-12.05 44.42-9.2 44.85-6.35 45.87-5.03 46.9-3.7 48.65-3.7ZM78.59 0L75.59 0 69.84-13.75Q69.54-14.55 69.02-16.03 68.49-17.5 67.89-19.35 67.29-21.2 66.67-23.08 66.04-24.95 65.52-26.55 64.99-28.15 64.69-29.13 64.39-30.1 64.39-30.1L64.39-30.1 62.09-32.6 62.39-35 65.49-35 71.09-21.5Q71.44-20.65 71.97-19.13 72.49-17.6 73.09-15.78 73.69-13.95 74.29-12.13 74.89-10.3 75.39-8.75 75.89-7.2 76.22-6.28 76.54-5.35 76.54-5.35L76.54-5.35 78.99-2.4 78.59 0ZM61.54 0L61.54 0 61.54-34.2Q61.54-35 62.39-35L62.39-35 65.59-34.2 65.04-28.35Q65.14-27.65 65.22-26.4 65.29-25.15 65.34-23.63 65.39-22.1 65.44-20.45 65.49-18.8 65.54-17.3 65.59-15.8 65.59-14.65 65.59-13.5 65.59-12.95L65.59-12.95 65.59-0.8Q65.59-0.4 65.42-0.25 65.24-0.1 64.42-0.05 63.59 0 61.54 0ZM78.59 0L78.59 0 75.39-0.8 75.84-7.5Q75.74-8.25 75.69-9.47 75.64-10.7 75.59-12.18 75.54-13.65 75.49-15.2 75.44-16.75 75.42-18.18 75.39-19.6 75.39-20.7 75.39-21.8 75.39-22.4L75.39-22.4 75.39-34.2Q75.39-34.6 75.57-34.75 75.74-34.9 76.59-34.95 77.44-35 79.44-35L79.44-35 79.44-0.8Q79.44 0 78.59 0ZM95.14 0L83.29 0 83.29-34.2Q83.29-34.2 83.42-34.6 83.54-35 84.14-35L84.14-35 96.14-35Q96.14-33.35 96.09-32.6 96.04-31.85 95.89-31.6 95.74-31.35 95.39-31.35L95.39-31.35 87.34-31.35 87.34-3.65 95.94-3.65Q95.94-1.95 95.89-1.18 95.84-0.4 95.69-0.2 95.54 0 95.14 0L95.14 0ZM94.14-17.2L83.84-17.2 83.84-20.9 94.89-20.9Q94.89-18.6 94.79-17.9 94.69-17.2 94.14-17.2L94.14-17.2ZM113.44 0L107.19 0 107.19-34.05Q107.19-34.5 107.46-34.75 107.74-35 108.54-35L108.54-35 113.39-35Q115.84-35 117.69-34.25 119.54-33.5 120.74-31.73 121.94-29.95 122.56-26.9 123.19-23.85 123.19-19.3L123.19-19.3Q123.19-13.8 122.54-10.08 121.89-6.35 120.61-4.15 119.34-1.95 117.54-0.98 115.74 0 113.44 0L113.44 0ZM111.24-31.25L111.24-3.85 113.49-3.85Q114.49-3.85 115.39-4.4 116.29-4.95 117.01-6.58 117.74-8.2 118.16-11.35 118.59-14.5 118.59-19.7L118.59-19.7Q118.59-23.15 118.26-25.4 117.94-27.65 117.31-28.95 116.69-30.25 115.74-30.75 114.79-31.25 113.54-31.25L113.54-31.25 111.24-31.25ZM138.38 0L126.53 0 126.53-34.2Q126.53-34.2 126.66-34.6 126.78-35 127.38-35L127.38-35 139.38-35Q139.38-33.35 139.33-32.6 139.28-31.85 139.13-31.6 138.98-31.35 138.63-31.35L138.63-31.35 130.58-31.35 130.58-3.65 139.18-3.65Q139.18-1.95 139.13-1.18 139.08-0.4 138.93-0.2 138.78 0 138.38 0L138.38 0ZM137.38-17.2L127.08-17.2 127.08-20.9 138.13-20.9Q138.13-18.6 138.03-17.9 137.93-17.2 137.38-17.2L137.38-17.2ZM154.38 0L142.48 0 142.48-33.85Q142.48-34.4 142.68-34.65 142.88-34.9 143.73-34.95 144.58-35 146.58-35L146.58-35 146.58-3.8 155.18-3.8 155.18-0.8Q155.18-0.3 154.96-0.15 154.73 0 154.38 0L154.38 0ZM158.18 0L158.18 0 158.18-33.15Q158.18-34.1 158.38-34.48 158.58-34.85 159.45-34.93 160.33-35 162.33-35L162.33-35 162.33-0.8Q162.33-0.4 162.13-0.25 161.93-0.1 161.1-0.05 160.28 0 158.18 0ZM174.18 0.35L174.18 0.35Q173.23 0.35 172.65-0.48 172.08-1.3 171.78-2.55L171.78-2.55Q171.28-4.6 170.58-7.68 169.88-10.75 169.1-14.28 168.33-17.8 167.55-21.25 166.78-24.7 166.18-27.55 165.58-30.4 165.2-32.1 164.83-33.8 164.83-33.8L164.83-33.8Q164.68-34.45 164.78-34.73 164.88-35 165.73-35L165.73-35 169.03-35 173.18-15.65Q173.63-13.45 173.98-11.23 174.33-9 174.63-7.03 174.93-5.05 175.18-3.45L175.18-3.45Q175.38-5.05 175.65-7.03 175.93-9 176.28-11.23 176.63-13.45 176.98-15.65L176.98-15.65 180.73-33.8Q180.83-34.4 181-34.7 181.18-35 181.78-35L181.78-35 185.28-35 177.58 0.15Q176.78 0.25 176.05 0.3 175.33 0.35 174.18 0.35ZM199.52 0L187.67 0 187.67-34.2Q187.67-34.2 187.8-34.6 187.92-35 188.52-35L188.52-35 200.52-35Q200.52-33.35 200.47-32.6 200.42-31.85 200.27-31.6 200.12-31.35 199.77-31.35L199.77-31.35 191.72-31.35 191.72-3.65 200.32-3.65Q200.32-1.95 200.27-1.18 200.22-0.4 200.07-0.2 199.92 0 199.52 0L199.52 0ZM198.52-17.2L188.22-17.2 188.22-20.9 199.27-20.9Q199.27-18.6 199.17-17.9 199.07-17.2 198.52-17.2L198.52-17.2ZM209.47-14.2L205.02-14.2Q204.27-14.2 204.22-14.45 204.17-14.7 204.17-15.3L204.17-15.3 204.17-34.05Q204.17-34.2 204.2-34.6 204.22-35 204.77-35L204.77-35 209.42-35Q212.57-35 214.62-33.98 216.67-32.95 217.65-30.78 218.62-28.6 218.62-25.1L218.62-25.1Q218.62-22 217.9-19.93 217.17-17.85 215.9-16.6 214.62-15.35 212.97-14.78 211.32-14.2 209.47-14.2L209.47-14.2ZM203.62 0L203.62 0 203.62-34.2Q203.62-34.2 203.75-34.6 203.87-35 204.47-35L204.47-35 206.87-35Q207.47-35 207.57-34.6 207.67-34.2 207.67-34.2L207.67-34.2 207.67-0.8Q207.67-0.4 207.5-0.25 207.32-0.1 206.47-0.05 205.62 0 203.62 0ZM216.92 0.1L216.92 0.1Q216.47 0.1 215.85 0.08 215.22 0.05 214.52 0L214.52 0Q214.27-4.3 213.5-7.23 212.72-10.15 211.85-11.88 210.97-13.6 210.32-14.35 209.67-15.1 209.67-15.1L209.67-15.1Q209.67-15.1 209.57-15.4 209.47-15.7 209.97-16L209.97-16 212.17-17.2Q212.77-17.2 213.02-16.75L213.02-16.75Q213.02-16.75 213.82-15.85 214.62-14.95 215.72-13.03 216.82-11.1 217.77-8.1 218.72-5.1 218.97-0.9L218.97-0.9Q218.97-0.35 218.67-0.13 218.37 0.1 216.92 0.1ZM207.57-31.45L207.57-17.95 209.87-17.95Q211.27-17.95 212.2-18.68 213.12-19.4 213.62-21.03 214.12-22.65 214.12-25.3L214.12-25.3Q214.12-27.2 213.77-28.6 213.42-30 212.55-30.73 211.67-31.45 210.17-31.45L210.17-31.45 207.57-31.45ZM237.42-35L229.77-11.7 227.47-11.75 219.72-34.35Q219.62-34.7 219.79-34.83 219.97-34.95 220.97-34.98 221.97-35 224.32-35L224.32-35 226.32-28.15Q226.67-26.95 227.09-25.38 227.52-23.8 227.89-22.25 228.27-20.7 228.49-19.48 228.72-18.25 228.77-17.7L228.77-17.7Q228.82-18.25 229.07-19.48 229.32-20.7 229.69-22.25 230.07-23.8 230.49-25.38 230.92-26.95 231.27-28.15L231.27-28.15 233.02-34.25Q233.12-34.65 233.34-34.8 233.57-34.95 234.47-34.98 235.37-35 237.42-35L237.42-35ZM226.62 0L226.62 0 226.62-17.1 230.67-17.1 230.67-0.8Q230.67-0.4 230.49-0.25 230.32-0.1 229.49-0.05 228.67 0 226.62 0ZM253.36 0.5L253.36 0.5Q249.91 0.5 248.34-0.48 246.76-1.45 246.76-2.5L246.76-2.5Q246.76-3.1 247.01-3.93 247.26-4.75 247.81-5.4L247.81-5.4Q248.61-4.65 249.89-4.15 251.16-3.65 252.96-3.65L252.96-3.65Q255.61-3.65 256.74-5.05 257.86-6.45 257.86-8.75L257.86-8.75Q257.86-10.45 257.24-11.9 256.61-13.35 254.96-15.25L254.96-15.25 249.96-21.1Q248.26-23.2 247.54-24.88 246.81-26.55 246.81-28.35L246.81-28.35Q246.81-31.5 249.04-33.5 251.26-35.5 255.41-35.5L255.41-35.5Q258.96-35.5 260.46-34.77 261.96-34.05 261.96-33L261.96-33Q261.96-32.5 261.71-31.88 261.46-31.25 260.96-30.7L260.96-30.7Q260.46-31.05 259.14-31.48 257.81-31.9 256.06-31.9L256.06-31.9Q253.81-31.9 252.49-31 251.16-30.1 251.16-28.45L251.16-28.45Q251.16-27.1 251.79-25.98 252.41-24.85 253.51-23.5L253.51-23.5 258.91-17.35Q260.86-15.05 261.56-13.15 262.26-11.25 262.26-8.9L262.26-8.9Q262.26-6.4 261.44-4.25 260.61-2.1 258.69-0.8 256.76 0.5 253.36 0.5ZM281.41-35L273.76-11.7 271.46-11.75 263.71-34.35Q263.61-34.7 263.79-34.83 263.96-34.95 264.96-34.98 265.96-35 268.31-35L268.31-35 270.31-28.15Q270.66-26.95 271.09-25.38 271.51-23.8 271.89-22.25 272.26-20.7 272.49-19.48 272.71-18.25 272.76-17.7L272.76-17.7Q272.81-18.25 273.06-19.48 273.31-20.7 273.69-22.25 274.06-23.8 274.49-25.38 274.91-26.95 275.26-28.15L275.26-28.15 277.01-34.25Q277.11-34.65 277.34-34.8 277.56-34.95 278.46-34.98 279.36-35 281.41-35L281.41-35ZM270.61 0L270.61 0 270.61-17.1 274.66-17.1 274.66-0.8Q274.66-0.4 274.49-0.25 274.31-0.1 273.49-0.05 272.66 0 270.61 0ZM289.46 0.5L289.46 0.5Q286.01 0.5 284.43-0.48 282.86-1.45 282.86-2.5L282.86-2.5Q282.86-3.1 283.11-3.93 283.36-4.75 283.91-5.4L283.91-5.4Q284.71-4.65 285.98-4.15 287.26-3.65 289.06-3.65L289.06-3.65Q291.71-3.65 292.83-5.05 293.96-6.45 293.96-8.75L293.96-8.75Q293.96-10.45 293.33-11.9 292.71-13.35 291.06-15.25L291.06-15.25 286.06-21.1Q284.36-23.2 283.63-24.88 282.91-26.55 282.91-28.35L282.91-28.35Q282.91-31.5 285.13-33.5 287.36-35.5 291.51-35.5L291.51-35.5Q295.06-35.5 296.56-34.77 298.06-34.05 298.06-33L298.06-33Q298.06-32.5 297.81-31.88 297.56-31.25 297.06-30.7L297.06-30.7Q296.56-31.05 295.23-31.48 293.91-31.9 292.16-31.9L292.16-31.9Q289.91-31.9 288.58-31 287.26-30.1 287.26-28.45L287.26-28.45Q287.26-27.1 287.88-25.98 288.51-24.85 289.61-23.5L289.61-23.5 295.01-17.35Q296.96-15.05 297.66-13.15 298.36-11.25 298.36-8.9L298.36-8.9Q298.36-6.4 297.53-4.25 296.71-2.1 294.78-0.8 292.86 0.5 289.46 0.5ZM306.15 0L306.15 0 306.15-34.4Q306.15-34.4 306.25-34.48 306.35-34.55 306.95-34.55L306.95-34.55 309.35-34.55Q310-34.55 310.1-34.48 310.2-34.4 310.2-34.4L310.2-34.4 310.2-0.8Q310.2-0.4 310.03-0.25 309.85-0.1 309-0.05 308.15 0 306.15 0ZM316.35-31.2L299.35-31.2 299.35-34.2Q299.35-35 300.2-35L300.2-35 317.2-35 317.2-32Q317.2-31.55 317-31.38 316.81-31.2 316.35-31.2L316.35-31.2ZM331.65 0L319.8 0 319.8-34.2Q319.8-34.2 319.93-34.6 320.05-35 320.65-35L320.65-35 332.65-35Q332.65-33.35 332.6-32.6 332.55-31.85 332.4-31.6 332.25-31.35 331.9-31.35L331.9-31.35 323.85-31.35 323.85-3.65 332.45-3.65Q332.45-1.95 332.4-1.18 332.35-0.4 332.2-0.2 332.05 0 331.65 0L331.65 0ZM330.65-17.2L320.35-17.2 320.35-20.9 331.4-20.9Q331.4-18.6 331.3-17.9 331.2-17.2 330.65-17.2L330.65-17.2ZM346.35-7.7L344.6-7.7 342-15.7Q341.85-16.1 341.52-17.3 341.2-18.5 340.72-20.13 340.25-21.75 339.77-23.45 339.3-25.15 338.9-26.65 338.5-28.15 338.22-29.08 337.95-30 337.95-30L337.95-30 339.55-35 344.3-19.85Q344.55-19.1 344.82-18.15 345.1-17.2 345.32-16.32 345.55-15.45 345.72-14.88 345.9-14.3 345.9-14.3L345.9-14.3Q345.9-14.3 346.02-14.88 346.15-15.45 346.37-16.32 346.6-17.2 346.85-18.1 347.1-19 347.35-19.75L347.35-19.75 351.75-34.2 353.55-29.8Q353.55-29.8 353.3-28.9 353.05-28 352.65-26.55 352.25-25.1 351.77-23.4 351.3-21.7 350.85-20.1 350.4-18.5 350.05-17.32 349.7-16.15 349.55-15.7L349.55-15.7 346.9-8.1Q346.75-7.7 346.35-7.7L346.35-7.7ZM335.75 0L335.75 0 335.75-34.2Q335.75-34.75 336-34.88 336.25-35 336.6-35L336.6-35 339.55-35 339.8-28.6 338.75-26.95Q338.75-26.95 338.82-26.25 338.9-25.55 338.97-24.38 339.05-23.2 339.17-21.68 339.3-20.15 339.42-18.53 339.55-16.9 339.62-15.3 339.7-13.7 339.7-12.4L339.7-12.4 339.8-0.8Q339.8-0.4 339.57-0.25 339.35-0.1 338.5-0.05 337.65 0 335.75 0ZM351.7 0L351.7 0 351.9-12.2Q351.9-13.5 351.97-15.1 352.05-16.7 352.17-18.4 352.3-20.1 352.4-21.68 352.5-23.25 352.6-24.5 352.7-25.75 352.75-26.5 352.8-27.25 352.8-27.25L352.8-27.25 351.75-28.2 351.75-34.2Q351.9-34.55 352.02-34.77 352.15-35 352.55-35L352.55-35Q354.2-35 354.9-35 355.6-35 355.72-35 355.85-35 355.85-35L355.85-35 355.85-0.8Q355.85-0.4 355.67-0.25 355.5-0.1 354.65-0.05 353.8 0 351.7 0Z" opacity="1" transform="matrix(1,0,0,1,0,0)" fill="#fff" class="undefined-text-0" data-fill-palette-color="primary" id="text-0"></path></svg></g></svg></g></svg></g></svg></g><g transform="matrix(1,0,0,1,64.56423107461693,0)"><svg viewBox="0 0 62.87153785076615 27.007022900763356" height="27.007022900763356" width="62.87153785076615"><g><svg xmlns="http://www.w3.org/2000/svg" xmlns:xlink="http://www.w3.org/1999/xlink" version="1.1" x="0" y="0" viewBox="4.959742546081543 31.56299591064453 90.4555892944336 38.855995178222656" enable-background="new 0 0 100 100" xml:space="preserve" height="27.007022900763356" width="62.87153785076615" class="icon-icon-0" data-fill-palette-color="accent" id="icon-0"><g display="none" fill="#fe633d" data-fill-palette-color="accent"><path display="inline" d="M58.672 59.96l-1.34-1.24c-0.04-0.04-0.221-0.1-0.261-0.1h-1.06l-3.06-2.851V54.37h1v-1.96h-1.95v-1.58h-0.641v1.58h-0.77v-1.55h-0.65v1.55h-0.77v-1.55h-0.65v1.55h-3.27V52c0-0.14-0.11-0.25-0.25-0.25h-2.06c-0.14 0-0.25 0.11-0.25 0.25v2.78c0 0.14 0.11 0.25 0.25 0.25h2.06c0.14 0 0.25-0.11 0.25-0.25v-0.41h2.272v1.399l-3.06 2.851h-1.06c-0.04 0-0.221 0.06-0.261 0.1l-1.34 1.24c-0.06 0.06-0.09 0.28-0.09 0.32v3.75c0 0.14 0.11 0.25 0.25 0.25h0.15c0.13 0 0.25-0.11 0.25-0.25v-0.205c0.192 0.271 0.47 0.454 0.791 0.454 0.385 0 0.707-0.26 0.889-0.629v1c0 0.14 0.11 0.25 0.25 0.25 0.01 0 0.07 0 0.08 0h0.687v1.159c0 1.101 0.9 2 2 2h1.11v0.41c0 0.141 0.11 0.25 0.25 0.25h3.56c0.141 0 0.25-0.109 0.25-0.25v-0.41h1.21c1.101 0 2-0.899 2-2V64.9h0.66c0.01 0 0.07 0 0.08 0 0.14 0 0.25-0.11 0.25-0.25v-1c0.182 0.369 0.504 0.629 0.889 0.629 0.321 0 0.599-0.183 0.791-0.454v0.205c0 0.14 0.12 0.25 0.25 0.25h0.15c0.14 0 0.25-0.11 0.25-0.25v-3.75C58.762 60.24 58.731 60.02 58.672 59.96zM44.295 61.15c-0.14 0-0.25 0.119-0.25 0.25v1.015c-0.182-0.369-0.504-0.629-0.889-0.629-0.321 0-0.599 0.183-0.791 0.454v-1.92l1.13-1.051h1.05c0.02 0 0.04 0 0.06-0.01 0.011 0 0.15-0.04 0.19-0.069l0.339-0.316c-0.043 0.139-0.073 0.283-0.073 0.436v1.841H44.295zM44.535 64.42v-2.78h0.526v2.78H44.535zM49.382 55.44c-0.23 0.189-0.38 0.46-0.38 0.75s0.15 0.56 0.38 0.75h-0.96c-0.14 0-0.25 0.109-0.25 0.25v0.619h-1.61c-0.112 0-0.221 0.015-0.326 0.038l1.8-1.678c0.01-0.01 0.14-0.14 0.14-0.229v-1.57h1.207V55.44zM53.952 57.81h-1.721V57.19c0-0.141-0.109-0.25-0.25-0.25h-0.87c0.24-0.19 0.381-0.46 0.381-0.75s-0.141-0.561-0.37-0.75v-1.07h1.18v1.57c0 0.09 0.13 0.22 0.14 0.229l1.79 1.668C54.141 57.82 54.048 57.81 53.952 57.81zM55.941 64.42h-0.5v-2.78h0.5V64.42zM58.111 62.24c-0.192-0.271-0.47-0.454-0.791-0.454-0.385 0-0.707 0.26-0.889 0.629V61.4c0-0.131-0.11-0.25-0.25-0.25h-0.74v-0.62c0-0.03 0.011-0.061 0.011-0.09V59.31c0-0.135-0.024-0.263-0.059-0.388l0.288 0.269c0.04 0.029 0.18 0.069 0.19 0.069 0.02 0.01 0.04 0.01 0.06 0.01h1.05l1.13 1.051V62.24z" fill="#fe633d" data-fill-palette-color="accent"></path><circle display="inline" fill="#fe633d" cx="50.254" cy="62.961" r="1.1" data-fill-palette-color="accent"></circle><g display="inline" fill="#fe633d" data-fill-palette-color="accent"><path fill="#fe633d" d="M50.238 65.627c-1.482 0-2.688-1.206-2.688-2.689 0-1.481 1.206-2.687 2.688-2.687 1.483 0 2.689 1.205 2.689 2.687C52.927 64.421 51.721 65.627 50.238 65.627zM50.238 60.453c-1.37 0-2.484 1.114-2.484 2.484 0 1.372 1.115 2.487 2.484 2.487 1.372 0 2.487-1.115 2.487-2.487C52.725 61.567 51.609 60.453 50.238 60.453z" data-fill-palette-color="accent"></path></g></g><g fill="#fe633d" data-fill-palette-color="accent"><path d="M95.287 33.412c-0.246-0.061-7.661-0.374-9.451-0.468-1.253-0.065-4.855-0.152-6.905-0.199-0.036-0.02-0.073-0.038-0.115-0.051-0.027-0.593-0.61-1.069-1.333-1.069-0.711 0-1.277 0.459-1.327 1.034-1.909-0.103-6.02-0.318-7.378-0.351-1.792-0.042-9.209-0.291-9.459-0.25s-0.209 0.666 0.375 0.833 11.67 1.417 14.002 1.458c0.812 0.015 1.517 0.019 2.099 0.019v0.798c0 0.153 0.142 0.285 0.343 0.344V36h-0.725c-0.595 0-1.077 0.302-1.077 0.674v1.963c-1.092-0.1-2.312-0.221-3.709-0.386-8.791-1.042-16.374-3.208-17.666-3.167-0.65 0.021-5.1 0.021-5.75 0-1.292-0.042-8.875 2.125-17.666 3.167-1.312 0.155-2.465 0.271-3.506 0.368v-2.007c0-0.372-0.482-0.674-1.077-0.674h-0.725v-0.49c0.201-0.059 0.343-0.19 0.343-0.344v-0.798c0.582 0 1.286-0.004 2.099-0.019 2.332-0.041 13.418-1.291 14.002-1.458s0.625-0.792 0.375-0.833-7.667 0.208-9.459 0.25c-1.358 0.032-5.469 0.248-7.378 0.351-0.05-0.575-0.616-1.034-1.327-1.034-0.723 0-1.306 0.477-1.333 1.069-0.042 0.013-0.079 0.031-0.115 0.051-2.05 0.047-5.652 0.134-6.905 0.199-1.79 0.094-9.205 0.407-9.451 0.468s-0.158 0.68 0.438 0.802c0.595 0.122 11.743 0.528 14.072 0.394 0.604-0.035 1.149-0.071 1.63-0.106v0.665c0 0.148 0.134 0.273 0.322 0.335v0.499h-0.725c-0.594 0-1.076 0.302-1.076 0.674v2.72c-1.018 0.283-1.412 0.74-1.412 1.669 0 2.333 2.917 1.708 4.625 1.708s2.542 0.917 5.292 1.875 4.833 0.792 5.625 0.667 1.125-0.333 1.917 0.375-0.375 4-0.375 4c-1.416 3.959-1.542 16.583-1.542 18.083s0.083 2.709 0.833 2.709 1.209-1.209 1.584-2.625 0.208-10.25 0.333-10.834 0.708-0.666 0.792-1.75 0.083-3.583 0.666-4.75 2.125-1.583 2.209-2.932 1.625-0.902 2.125-0.86c0.282 0.023 0.688 0.709 0.939 1.208 0.669 1.921 2.369 3.294 4.374 3.294h4.686c1.833 0 3.402-1.152 4.174-2.813-0.018 0.051-0.007 0.043 0.044-0.056l-0.017 0c0.05-0.11 0.104-0.217 0.146-0.332 0.246-0.501 0.687-1.277 0.986-1.302 0.5-0.042 2.041-0.488 2.125 0.86s1.626 1.765 2.209 2.932 0.582 3.666 0.666 4.75 0.667 1.166 0.792 1.75-0.042 9.418 0.333 10.834 0.834 2.625 1.584 2.625 0.833-1.209 0.833-2.709-0.126-14.124-1.542-18.083c0 0-1.167-3.292-0.375-4s1.125-0.5 1.917-0.375 2.875 0.292 5.625-0.667 3.584-1.875 5.292-1.875 4.625 0.625 4.625-1.708c0-0.868-0.337-1.326-1.209-1.613v-2.714c0-0.372-0.482-0.674-1.076-0.674h-0.725V35.5c0.188-0.062 0.322-0.187 0.322-0.335V34.5c0.48 0.035 1.025 0.071 1.63 0.106 2.329 0.135 13.478-0.271 14.072-0.394C95.445 34.091 95.533 33.472 95.287 33.412z" fill="#fe633d" data-fill-palette-color="accent"></path></g></svg></g></svg></g><g></g></svg></g></svg></g></svg></g></svg></g><defs></defs></svg><rect width="320" height="360" fill="none" stroke="none" visibility="hidden"></rect></g></svg>