<svg width="450" height="259" viewBox="0 0 450 259" fill="none" xmlns="http://www.w3.org/2000/svg">
<rect width="450" height="259" fill="white"/>
<rect x="67.4844" y="219.984" width="197.811" height="11.6" fill="white" stroke="#242424" stroke-width="2"/>
<rect x="80.3054" y="114.974" width="167.895" height="104.4" fill="white" stroke="#242424" stroke-width="2"/>
<path d="M129.453 42.3213H173.792H195.962H204.223H212.484H218.132H306.811L364.2 114.974H215.232H74.162L70.2317 111.006L74.162 105.892L82.0607 96.8108L97.858 78.6477L129.453 42.3213Z" fill="#FFD249" stroke="#242424" stroke-width="2"/>
<rect x="265.295" y="219.984" width="105.011" height="11.6" fill="white" stroke="#242424" stroke-width="2"/>
<path d="M305.895 49.0371L330.011 78.9529L358.706 114.974V219.374H248.2V114.974L305.895 49.0371Z" fill="white" stroke="#242424" stroke-width="2"/>
<path d="M144.98 27H237.178L249.619 40.7741H132.317L144.98 27Z" fill="white"/>
<path d="M128.617 61.2476L145.101 42.3213L164.638 63.6897V88.1108H128.617V61.2476Z" fill="white" stroke="#242424" stroke-width="2"/>
<path d="M117.799 55.4159L117.166 56.121L117.836 56.791L121.804 60.7594L122.576 61.5311L123.278 60.6951L144.834 35.0049L163.905 55.5433L164.202 55.8628H164.638H196.691H198.904L197.441 54.2018L174.851 28.5597L174.553 28.2207H174.101H142.659H142.213L141.915 28.5527L117.799 55.4159Z" fill="#FFD249" stroke="#242424" stroke-width="2"/>
<path d="M164.638 61.8574H193.943L177.197 77.1438L166.916 86.1212C166.027 86.8972 164.638 86.266 164.638 85.0862V61.8574Z" fill="white" stroke="#242424" stroke-width="2"/>
<rect x="135.333" y="61.9697" width="21.979" height="21.979" fill="#FFD249"/>
<path d="M204.921 61.2476L221.405 42.3213L240.942 63.6897V88.1108H204.921V61.2476Z" fill="white" stroke="#242424" stroke-width="2"/>
<path d="M194.103 55.4159L193.47 56.121L194.14 56.791L198.108 60.7594L198.88 61.5311L199.581 60.6951L221.138 35.0049L240.209 55.5433L240.506 55.8628H240.942H272.994H275.208L273.745 54.2018L251.155 28.5597L250.857 28.2207H250.405H218.963H218.517L218.219 28.5527L194.103 55.4159Z" fill="#FFD249" stroke="#242424" stroke-width="2"/>
<path d="M240.942 61.8574H270.247L253.501 77.1438L243.22 86.1212C242.331 86.8972 240.942 86.266 240.942 85.0862V61.8574Z" fill="white" stroke="#242424" stroke-width="2"/>
<rect x="211.636" y="61.9697" width="21.979" height="21.979" fill="#FFD249"/>
<path d="M102.284 136.953H135.863H180.737H225.611V167.479V198.005H180.737H135.863H102.284V167.479V136.953Z" fill="white"/>
<path d="M135.863 198.005H102.284V167.479M135.863 198.005V136.953M135.863 198.005H180.737M135.863 136.953H102.284V167.479M135.863 136.953H180.737M180.737 136.953H225.611V167.479M180.737 136.953V198.005M180.737 198.005H225.611V167.479M102.284 167.479H225.611" stroke="#242424" stroke-width="2"/>
<rect x="272.621" y="140.005" width="55.558" height="79.3685" fill="white" stroke="#242424" stroke-width="2"/>
<rect x="272.621" y="148.552" width="45.7895" height="70.8211" fill="#FFD249" stroke="#242424" stroke-width="2"/>
<path d="M341.358 150.384L345.885 145.826L318.378 114.974H282.514L256.748 144.424H293.308L315.94 119.882L341.358 150.384Z" fill="#FFD249" stroke="#242424" stroke-width="2"/>
<path d="M22 232.5H427.695" stroke="#242424" stroke-width="2" stroke-linecap="round"/>
</svg>
