<svg xmlns="http://www.w3.org/2000/svg" version="1.1" xmlns:xlink="http://www.w3.org/1999/xlink" xmlns:svgjs="http://svgjs.com/svgjs" width="1440" height="560" preserveAspectRatio="none" viewBox="0 0 1440 560"><g mask="url(&quot;#SvgjsMask1000&quot;)" fill="none"><rect width="1440" height="560" x="0" y="0" fill="#0e2a47"></rect><path d="M874.07 17.42L925.21 17.42L925.21 68.56L874.07 68.56z" stroke="#037b0b"></path><path d="M245.93 31.82L284.59 31.82L284.59 70.48L245.93 70.48z" fill="#037b0b"></path><path d="M652.79 522.49 a47.52 47.52 0 1 0 95.04 0 a47.52 47.52 0 1 0 -95.04 0z" stroke="#037b0b"></path><path d="M1081.61 362.87a8.93 8.93 0 1 0-17.11 5.12z" stroke="#d3b714"></path><path d="M575.8 259.17L599.82 259.17L599.82 283.19L575.8 283.19z" fill="#e73635"></path><path d="M1310.75 84.78a0.97 0.97 0 1 0-1.14 1.57z" stroke="#d3b714"></path><path d="M1026.39 289.1L1061.65 289.1L1061.65 324.36L1026.39 324.36z" fill="#e73635"></path><path d="M1356.18 72.95 a53.62 53.62 0 1 0 107.24 0 a53.62 53.62 0 1 0 -107.24 0z" stroke="#e73635"></path><path d="M493.76 8.03a37.26 37.26 0 1 0-11.86 73.57z" stroke="#d3b714"></path><path d="M655.36 103.97L702.29 103.97L702.29 151.65L655.36 151.65z" fill="#d3b714"></path><path d="M1140.99 527.71 a20.59 20.59 0 1 0 41.18 0 a20.59 20.59 0 1 0 -41.18 0z" stroke="#037b0b"></path><path d="M924.25 178.44a3.2 3.2 0 1 0-2.09 6.04z" fill="#037b0b"></path><path d="M399.51 166.16 a49.78 49.78 0 1 0 99.56 0 a49.78 49.78 0 1 0 -99.56 0z" fill="#037b0b"></path><path d="M283.74 74.72a36.56 36.56 0 1 0 58.62 43.69z" stroke="#037b0b"></path><path d="M44.94 310.12L64.78 310.12L64.78 329.96L44.94 329.96z" stroke="#037b0b"></path><path d="M95.74 346.58L119.32 346.58L119.32 400.48L95.74 400.48z" fill="#037b0b"></path><path d="M112.38 203.13 a15.91 15.91 0 1 0 31.82 0 a15.91 15.91 0 1 0 -31.82 0z" fill="#e73635"></path><path d="M574.32 138.48L587.32 138.48L587.32 192.52L574.32 192.52z" fill="#d3b714"></path><path d="M1400.04 250.41a1.09 1.09 0 1 0 1.68-1.39z" fill="#d3b714"></path><path d="M62.64 97.45L93.21 97.45L93.21 128.02L62.64 128.02z" fill="#d3b714"></path><path d="M517.49 485.46a49.94 49.94 0 1 0-99.64-6.96z" stroke="#e73635"></path><path d="M318.15 286.84 a31.73 31.73 0 1 0 63.46 0 a31.73 31.73 0 1 0 -63.46 0z" stroke="#e73635"></path><path d="M222.05 31.53L252.23 31.53L252.23 61.71L222.05 61.71z" stroke="#d3b714"></path><path d="M87.96 74.71L140.83 74.71L140.83 125.95L87.96 125.95z" stroke="#d3b714"></path><path d="M1281.35 265.87a25.86 25.86 0 1 0-23.88-45.88z" fill="#e73635"></path><path d="M1348.24 475.78 a55.42 55.42 0 1 0 110.84 0 a55.42 55.42 0 1 0 -110.84 0z" fill="#e73635"></path><path d="M1377.31 331.54 a25.26 25.26 0 1 0 50.52 0 a25.26 25.26 0 1 0 -50.52 0z" stroke="#037b0b"></path><path d="M478.44 475.08L489.64 475.08L489.64 488.36L478.44 488.36z" fill="#e73635"></path><path d="M144.17 277.34L196.53 277.34L196.53 331.48L144.17 331.48z" stroke="#037b0b"></path><path d="M900.92 385.48L953.65 385.48L953.65 408.18L900.92 408.18z" fill="#037b0b"></path><path d="M327.62 440.9a37.56 37.56 0 1 0 58.77-46.78z" stroke="#d3b714"></path><path d="M1133.58 188.82L1167.49 188.82L1167.49 222.73L1133.58 222.73z" fill="#037b0b"></path><path d="M800.98 202.47a49.62 49.62 0 1 0 85.1-51.05z" stroke="#037b0b"></path></g><defs><mask id="SvgjsMask1000"><rect width="1440" height="560" fill="#ffffff"></rect></mask></defs></svg>